<svg width="167" height="28" viewBox="0 0 167 28" fill="none" xmlns="http://www.w3.org/2000/svg">
<path d="M4.80078 21.3965C3.97135 21.3965 3.16927 21.3372 2.39453 21.2188C1.62891 21.1003 0.972656 20.8678 0.425781 20.5215V16.625C1.03646 16.8164 1.60156 16.9395 2.12109 16.9941C2.64974 17.0397 3.10547 17.0625 3.48828 17.0625C3.89844 17.0625 4.21745 16.9805 4.44531 16.8164C4.68229 16.6432 4.86003 16.4245 4.97852 16.1602C5.09701 15.8958 5.16992 15.5996 5.19727 15.2715C5.22461 14.9342 5.23828 14.6016 5.23828 14.2734V1.66797H11.3633V15.1348C11.3633 16.2285 11.1719 17.1719 10.7891 17.9648C10.4062 18.7487 9.90495 19.3958 9.28516 19.9062C8.67448 20.4167 7.97266 20.7904 7.17969 21.0273C6.39583 21.2734 5.60286 21.3965 4.80078 21.3965ZM16.0254 1.66797H24.7207C26.097 1.66797 27.3092 1.85026 28.3574 2.21484C29.4056 2.57031 30.276 3.04427 30.9688 3.63672C31.6706 4.22005 32.1992 4.88542 32.5547 5.63281C32.9102 6.37109 33.0879 7.11849 33.0879 7.875C33.0879 8.46745 33.0286 9.05534 32.9102 9.63867C32.7917 10.2129 32.582 10.7598 32.2812 11.2793C31.9805 11.7897 31.5658 12.2546 31.0371 12.6738C30.5176 13.084 29.8522 13.4167 29.041 13.6719C29.1595 14.0547 29.36 14.5286 29.6426 15.0938C29.9251 15.6589 30.2533 16.2695 30.627 16.9258C31.0007 17.582 31.4017 18.2611 31.8301 18.9629C32.2585 19.6647 32.6777 20.3438 33.0879 21H26.0879C25.696 20.1159 25.2949 19.127 24.8848 18.0332C24.4746 16.9303 24.1465 15.7318 23.9004 14.4375H22.1504V21H16.0254V1.66797ZM23.1895 11.375C23.8822 11.375 24.4655 11.2839 24.9395 11.1016C25.4225 10.9193 25.8145 10.6823 26.1152 10.3906C26.416 10.099 26.6302 9.77083 26.7578 9.40625C26.8945 9.04167 26.9629 8.67708 26.9629 8.3125C26.9629 7.59245 26.8626 7.00456 26.6621 6.54883C26.4616 6.0931 26.1882 5.73763 25.8418 5.48242C25.4954 5.2181 25.0944 5.04036 24.6387 4.94922C24.1829 4.85807 23.6953 4.8125 23.1758 4.8125H22.1504V11.375H23.1895ZM39.2949 21.3965C38.7116 21.3965 38.151 21.3145 37.6133 21.1504C37.0846 20.9863 36.6152 20.7357 36.2051 20.3984C35.7949 20.0612 35.4668 19.6374 35.2207 19.127C34.9837 18.6074 34.8652 17.9967 34.8652 17.2949C34.8652 16.6204 34.9746 16.0371 35.1934 15.5449C35.4121 15.0436 35.7038 14.6152 36.0684 14.2598C36.4421 13.9043 36.875 13.6126 37.3672 13.3848C37.8685 13.1478 38.3971 12.9655 38.9531 12.8379C39.5091 12.7012 40.0788 12.61 40.6621 12.5645C41.2546 12.5098 41.8288 12.4824 42.3848 12.4824C42.7676 12.4824 43.1367 12.4915 43.4922 12.5098C43.8477 12.528 44.1803 12.5508 44.4902 12.5781C44.472 12.0039 44.3626 11.5299 44.1621 11.1562C43.9616 10.7734 43.6973 10.4727 43.3691 10.2539C43.041 10.026 42.6582 9.86654 42.2207 9.77539C41.7832 9.68424 41.3229 9.63867 40.8398 9.63867C40.3932 9.63867 39.9329 9.67057 39.459 9.73438C38.9941 9.78906 38.5384 9.86198 38.0918 9.95312C37.6452 10.0352 37.2168 10.1263 36.8066 10.2266C36.4056 10.3268 36.0501 10.418 35.7402 10.5V6.67188C36.1868 6.57161 36.6654 6.47591 37.1758 6.38477C37.6953 6.28451 38.2331 6.19792 38.7891 6.125C39.3451 6.05208 39.9102 5.99284 40.4844 5.94727C41.0677 5.90169 41.6419 5.87891 42.207 5.87891C42.9089 5.87891 43.597 5.92448 44.2715 6.01562C44.9551 6.09766 45.5977 6.23893 46.1992 6.43945C46.8099 6.63997 47.3704 6.90885 47.8809 7.24609C48.4004 7.58333 48.8424 8.0026 49.207 8.50391C49.5807 8.99609 49.8724 9.57943 50.082 10.2539C50.2917 10.9284 50.3965 11.7077 50.3965 12.5918V21H44.7637V18.5527C44.5449 18.9993 44.2396 19.4004 43.8477 19.7559C43.4557 20.1022 43.0137 20.3984 42.5215 20.6445C42.0293 20.8906 41.5052 21.0775 40.9492 21.2051C40.3932 21.3327 39.8418 21.3965 39.2949 21.3965ZM41.6055 18.1836C41.8607 18.1836 42.1523 18.1152 42.4805 17.9785C42.8177 17.8327 43.1322 17.6139 43.4238 17.3223C43.7246 17.0306 43.9753 16.6615 44.1758 16.2148C44.3854 15.7682 44.4902 15.235 44.4902 14.6152H44.0391C43.6016 14.6152 43.1504 14.6608 42.6855 14.752C42.2298 14.8431 41.8105 14.9798 41.4277 15.1621C41.0449 15.3444 40.7305 15.5677 40.4844 15.832C40.2383 16.0964 40.1152 16.4017 40.1152 16.748C40.1152 17.0215 40.1608 17.2493 40.252 17.4316C40.3431 17.6139 40.457 17.7643 40.5938 17.8828C40.7396 17.9922 40.8991 18.0697 41.0723 18.1152C41.2546 18.1608 41.4323 18.1836 41.6055 18.1836ZM54.3613 6.24805H60.2676C60.2129 6.55794 60.1582 6.95898 60.1035 7.45117C60.0488 7.93424 60.0215 8.43555 60.0215 8.95508C60.3314 8.49023 60.7188 8.07096 61.1836 7.69727C61.6576 7.31445 62.1771 6.99089 62.7422 6.72656C63.3073 6.45312 63.9043 6.24349 64.5332 6.09766C65.1712 5.95182 65.8138 5.87891 66.4609 5.87891C67.1719 5.87891 67.8464 5.98828 68.4844 6.20703C69.1224 6.41667 69.6829 6.75391 70.166 7.21875C70.6491 7.68359 71.0319 8.28971 71.3145 9.03711C71.597 9.77539 71.7383 10.6732 71.7383 11.7305V21H65.832V12.5918C65.832 12.0267 65.7728 11.5573 65.6543 11.1836C65.5358 10.8099 65.3717 10.5137 65.1621 10.2949C64.9525 10.0762 64.7018 9.92122 64.4102 9.83008C64.1276 9.73893 63.8177 9.69336 63.4805 9.69336C63.1159 9.69336 62.7559 9.75716 62.4004 9.88477C62.0449 10.0033 61.7214 10.1673 61.4297 10.377C61.138 10.5866 60.8874 10.8327 60.6777 11.1152C60.4681 11.3978 60.3314 11.6986 60.2676 12.0176V21H54.3613V6.24805ZM86.0527 18.457C85.6699 19.2591 85.0775 19.8835 84.2754 20.3301C83.4733 20.7767 82.5482 21 81.5 21C80.3789 21 79.3991 20.7904 78.5605 20.3711C77.7311 19.9518 77.043 19.4004 76.4961 18.7168C75.9492 18.0332 75.5391 17.2493 75.2656 16.3652C75.0013 15.4811 74.8691 14.5742 74.8691 13.6445C74.8691 12.6875 75.0059 11.7487 75.2793 10.8281C75.5618 9.89844 75.972 9.06901 76.5098 8.33984C77.0566 7.60156 77.7311 7.00911 78.5332 6.5625C79.3353 6.10677 80.2604 5.87891 81.3086 5.87891C81.9831 5.87891 82.5846 5.95638 83.1133 6.11133C83.651 6.26628 84.125 6.48958 84.5352 6.78125C84.9453 7.0638 85.3008 7.4056 85.6016 7.80664C85.9023 8.19857 86.1621 8.64062 86.3809 9.13281C86.3809 9.05078 86.3717 8.88216 86.3535 8.62695C86.3353 8.37174 86.3079 8.09375 86.2715 7.79297C86.2441 7.49219 86.2122 7.20052 86.1758 6.91797C86.1393 6.6263 86.1029 6.40299 86.0664 6.24805H91.9727V17.8281C91.9727 19.4779 91.7676 20.9089 91.3574 22.1211C90.9564 23.3424 90.3776 24.3542 89.6211 25.1562C88.8646 25.9674 87.9349 26.569 86.832 26.9609C85.7383 27.362 84.5033 27.5625 83.127 27.5625C82.571 27.5625 82.0742 27.5488 81.6367 27.5215C81.2083 27.4941 80.7982 27.4531 80.4062 27.3984C80.0143 27.3438 79.6178 27.2754 79.2168 27.1934C78.8249 27.1113 78.3919 27.0156 77.918 26.9062L78.3281 23.4609C78.5833 23.5339 78.8704 23.6022 79.1895 23.666C79.5176 23.7298 79.8548 23.7845 80.2012 23.8301C80.5566 23.8848 80.9167 23.9258 81.2812 23.9531C81.6458 23.9896 81.9922 24.0078 82.3203 24.0078C83.1042 24.0078 83.7376 23.8574 84.2207 23.5566C84.7129 23.2559 85.0911 22.8503 85.3555 22.3398C85.6289 21.8294 85.8112 21.2415 85.9023 20.5762C86.0026 19.9017 86.0527 19.1953 86.0527 18.457ZM80.3789 13.6582C80.3789 14.4056 80.4609 15.0299 80.625 15.5312C80.7891 16.0326 81.0033 16.4382 81.2676 16.748C81.541 17.0488 81.8464 17.2676 82.1836 17.4043C82.5299 17.5319 82.8809 17.5957 83.2363 17.5957C83.5918 17.5957 83.9382 17.5319 84.2754 17.4043C84.6126 17.2676 84.9134 17.0488 85.1777 16.748C85.4421 16.4382 85.6517 16.0326 85.8066 15.5312C85.9707 15.0208 86.0527 14.3919 86.0527 13.6445C86.0527 12.9062 85.9707 12.2865 85.8066 11.7852C85.6517 11.2747 85.4421 10.8646 85.1777 10.5547C84.9134 10.2448 84.6126 10.026 84.2754 9.89844C83.9473 9.76172 83.6055 9.69336 83.25 9.69336C82.8945 9.69336 82.5436 9.76172 82.1973 9.89844C81.86 10.026 81.5547 10.2448 81.2812 10.5547C81.0078 10.8646 80.7891 11.2747 80.625 11.7852C80.4609 12.2865 80.3789 12.9108 80.3789 13.6582ZM109.924 20.4121C109.067 20.6947 108.142 20.9271 107.148 21.1094C106.155 21.3008 105.12 21.3965 104.045 21.3965C102.869 21.3965 101.748 21.2415 100.682 20.9316C99.6152 20.6217 98.6764 20.1387 97.8652 19.4824C97.054 18.8262 96.4069 17.9967 95.9238 16.9941C95.4499 15.9824 95.2129 14.7793 95.2129 13.3848C95.2129 12.5918 95.3359 11.8581 95.582 11.1836C95.8281 10.5 96.1608 9.88021 96.5801 9.32422C97.0085 8.76823 97.5052 8.27604 98.0703 7.84766C98.6445 7.41927 99.2552 7.05924 99.9023 6.76758C100.559 6.47591 101.233 6.25716 101.926 6.11133C102.618 5.95638 103.298 5.87891 103.963 5.87891C105.011 5.87891 105.936 5.9974 106.738 6.23438C107.54 6.46224 108.206 6.77214 108.734 7.16406C109.272 7.55599 109.678 8.01172 109.951 8.53125C110.225 9.05078 110.361 9.60221 110.361 10.1855C110.361 10.8965 110.238 11.5026 109.992 12.0039C109.755 12.5052 109.432 12.929 109.021 13.2754C108.62 13.6126 108.151 13.8815 107.613 14.082C107.085 14.2734 106.524 14.4238 105.932 14.5332C105.339 14.6335 104.733 14.6973 104.113 14.7246C103.503 14.752 102.919 14.7656 102.363 14.7656C102.172 14.7656 101.985 14.7656 101.803 14.7656C101.63 14.7565 101.456 14.752 101.283 14.752C101.356 15.2715 101.497 15.709 101.707 16.0645C101.926 16.4199 102.195 16.7116 102.514 16.9395C102.842 17.1582 103.215 17.3177 103.635 17.418C104.063 17.5091 104.519 17.5547 105.002 17.5547C105.367 17.5547 105.754 17.5273 106.164 17.4727C106.583 17.418 107.003 17.3451 107.422 17.2539C107.85 17.1536 108.274 17.0443 108.693 16.9258C109.122 16.7982 109.532 16.666 109.924 16.5293V20.4121ZM101.16 12.6465C101.379 12.6374 101.657 12.6237 101.994 12.6055C102.34 12.5872 102.705 12.5553 103.088 12.5098C103.471 12.4642 103.854 12.4004 104.236 12.3184C104.619 12.2363 104.965 12.1315 105.275 12.0039C105.585 11.8763 105.836 11.7168 106.027 11.5254C106.219 11.334 106.314 11.1016 106.314 10.8281C106.314 10.3633 106.128 9.99414 105.754 9.7207C105.389 9.43815 104.879 9.29688 104.223 9.29688C103.922 9.29688 103.598 9.34245 103.252 9.43359C102.906 9.51562 102.582 9.67969 102.281 9.92578C101.98 10.1719 101.725 10.5137 101.516 10.9512C101.306 11.3887 101.188 11.9538 101.16 12.6465ZM113.998 0H119.904V21H113.998V0Z" fill="#118AB2"/>
<path d="M128.258 21.3965C127.647 21.3965 127.137 21.3099 126.727 21.1367C126.326 20.9635 125.984 20.7357 125.701 20.4531C125.419 20.1615 125.2 19.8333 125.045 19.4688C124.899 19.0951 124.826 18.7168 124.826 18.334C124.826 17.9694 124.904 17.6048 125.059 17.2402C125.214 16.8757 125.437 16.5475 125.729 16.2559C126.02 15.9642 126.367 15.7272 126.768 15.5449C127.178 15.3626 127.679 15.2715 128.271 15.2715C128.882 15.2715 129.402 15.3626 129.83 15.5449C130.258 15.7272 130.623 15.9642 130.924 16.2559C131.234 16.5475 131.471 16.8757 131.635 17.2402C131.799 17.5957 131.881 17.9557 131.881 18.3203C131.881 18.7122 131.799 19.0951 131.635 19.4688C131.48 19.8333 131.252 20.1615 130.951 20.4531C130.66 20.7357 130.295 20.9635 129.857 21.1367C129.429 21.3099 128.896 21.3965 128.258 21.3965Z" fill="#B856A2"/>
<path d="M139.131 21.2266C138.62 21.2266 138.133 21.1406 137.67 20.9688C137.212 20.7969 136.808 20.5312 136.459 20.1719C136.115 19.8073 135.839 19.3464 135.631 18.7891C135.428 18.2318 135.326 17.5677 135.326 16.7969C135.326 15.9844 135.43 15.2969 135.639 14.7344C135.852 14.1667 136.131 13.7083 136.475 13.3594C136.818 13.0052 137.212 12.75 137.654 12.5938C138.097 12.4375 138.553 12.3594 139.021 12.3594C139.318 12.3594 139.615 12.3932 139.912 12.4609C140.209 12.5286 140.488 12.625 140.748 12.75C141.008 12.8698 141.243 13.013 141.451 13.1797C141.66 13.3464 141.824 13.5286 141.943 13.7266V9H145.318V21H141.943V19.6094C141.803 19.8646 141.631 20.0938 141.428 20.2969C141.225 20.4948 140.998 20.6641 140.748 20.8047C140.503 20.9401 140.243 21.0443 139.967 21.1172C139.691 21.1901 139.412 21.2266 139.131 21.2266ZM138.701 16.8047C138.701 17.2318 138.748 17.5885 138.842 17.875C138.936 18.1615 139.058 18.3932 139.209 18.5703C139.365 18.7422 139.54 18.8672 139.732 18.9453C139.93 19.0182 140.131 19.0547 140.334 19.0547C140.537 19.0547 140.735 19.0182 140.928 18.9453C141.12 18.8672 141.292 18.7422 141.443 18.5703C141.594 18.3932 141.714 18.1615 141.803 17.875C141.896 17.5833 141.943 17.224 141.943 16.7969C141.943 16.375 141.896 16.0208 141.803 15.7344C141.714 15.4427 141.594 15.2083 141.443 15.0312C141.292 14.8542 141.12 14.7292 140.928 14.6562C140.74 14.5781 140.545 14.5391 140.342 14.5391C140.139 14.5391 139.938 14.5781 139.74 14.6562C139.548 14.7292 139.373 14.8542 139.217 15.0312C139.061 15.2083 138.936 15.4427 138.842 15.7344C138.748 16.0208 138.701 16.3776 138.701 16.8047ZM155.576 20.6641C155.087 20.8255 154.558 20.9583 153.99 21.0625C153.423 21.1719 152.831 21.2266 152.217 21.2266C151.545 21.2266 150.904 21.138 150.295 20.9609C149.686 20.7839 149.149 20.5078 148.686 20.1328C148.222 19.7578 147.852 19.2839 147.576 18.7109C147.305 18.1328 147.17 17.4453 147.17 16.6484C147.17 16.1953 147.24 15.776 147.381 15.3906C147.521 15 147.712 14.6458 147.951 14.3281C148.196 14.0104 148.48 13.7292 148.803 13.4844C149.131 13.2396 149.48 13.0339 149.85 12.8672C150.225 12.7005 150.61 12.5755 151.006 12.4922C151.402 12.4036 151.79 12.3594 152.17 12.3594C152.769 12.3594 153.298 12.4271 153.756 12.5625C154.214 12.6927 154.594 12.8698 154.896 13.0938C155.204 13.3177 155.436 13.5781 155.592 13.875C155.748 14.1719 155.826 14.487 155.826 14.8203C155.826 15.2266 155.756 15.5729 155.615 15.8594C155.48 16.1458 155.295 16.388 155.061 16.5859C154.831 16.7786 154.563 16.9323 154.256 17.0469C153.954 17.1562 153.633 17.2422 153.295 17.3047C152.956 17.362 152.61 17.3984 152.256 17.4141C151.907 17.4297 151.574 17.4375 151.256 17.4375C151.146 17.4375 151.04 17.4375 150.936 17.4375C150.837 17.4323 150.738 17.4297 150.639 17.4297C150.68 17.7266 150.761 17.9766 150.881 18.1797C151.006 18.3828 151.16 18.5495 151.342 18.6797C151.529 18.8047 151.743 18.8958 151.982 18.9531C152.227 19.0052 152.488 19.0312 152.764 19.0312C152.972 19.0312 153.193 19.0156 153.428 18.9844C153.667 18.9531 153.907 18.9115 154.146 18.8594C154.391 18.8021 154.633 18.7396 154.873 18.6719C155.118 18.599 155.352 18.5234 155.576 18.4453V20.6641ZM150.568 16.2266C150.693 16.2214 150.852 16.2135 151.045 16.2031C151.243 16.1927 151.451 16.1745 151.67 16.1484C151.889 16.1224 152.107 16.0859 152.326 16.0391C152.545 15.9922 152.743 15.9323 152.92 15.8594C153.097 15.7865 153.24 15.6953 153.35 15.5859C153.459 15.4766 153.514 15.3438 153.514 15.1875C153.514 14.9219 153.407 14.7109 153.193 14.5547C152.985 14.3932 152.693 14.3125 152.318 14.3125C152.146 14.3125 151.962 14.3385 151.764 14.3906C151.566 14.4375 151.381 14.5312 151.209 14.6719C151.037 14.8125 150.891 15.0078 150.771 15.2578C150.652 15.5078 150.584 15.8307 150.568 16.2266ZM156.912 12.5703H160.701L162.162 18.8828L163.795 12.5703H166.662L163.967 21H159.693L156.912 12.5703Z" fill="#2EC9B7"/>
</svg>
