<svg width="28" height="29" viewBox="0 0 28 29" fill="none" xmlns="http://www.w3.org/2000/svg">
<g clip-path="url(#clip0_47_49)">
<path fill-rule="evenodd" clip-rule="evenodd" d="M14 0.5C21.7322 0.5 28 6.9259 28 14.8541C28 21.1947 23.9932 26.5735 18.4338 28.4733C17.724 28.6147 17.472 28.1665 17.472 27.7843C17.472 27.3111 17.4888 25.7655 17.4888 23.8447C17.4888 22.5063 17.0408 21.6328 16.5382 21.1876C19.656 20.832 22.932 19.6181 22.932 14.1049C22.932 12.5369 22.3888 11.2573 21.49 10.2521C21.6356 9.88955 22.1158 8.42954 21.3528 6.45274C21.3528 6.45274 20.1796 6.06811 17.507 7.92451C16.3884 7.60671 15.19 7.44681 14 7.44121C12.81 7.44681 11.613 7.60671 10.4958 7.92451C7.8204 6.06811 6.6444 6.45274 6.6444 6.45274C5.8842 8.42954 6.3644 9.88955 6.5086 10.2521C5.614 11.2573 5.0666 12.5369 5.0666 14.1049C5.0666 19.6041 8.3356 20.8366 11.445 21.1992C11.0446 21.5576 10.682 22.1899 10.556 23.1181C9.758 23.4849 7.7308 24.1197 6.482 21.9259C6.482 21.9259 5.7414 20.5467 4.3358 20.4459C4.3358 20.4459 2.9708 20.4278 4.2406 21.3182C4.2406 21.3182 5.1576 21.7592 5.7946 23.4182C5.7946 23.4182 6.6164 25.9801 10.5112 25.1121C10.5182 26.3119 10.5308 27.4427 10.5308 27.7843C10.5308 28.1637 10.2732 28.6077 9.5746 28.4747C4.011 26.5777 0 21.1961 0 14.8541C0 6.9259 6.2692 0.5 14 0.5Z" fill="#FAFAFA"/>
</g>
<defs>
<clipPath id="clip0_47_49">
<rect width="28" height="28" fill="white" transform="translate(0 0.5)"/>
</clipPath>
</defs>
</svg>
