<svg width="28" height="29" viewBox="0 0 28 29" fill="none" xmlns="http://www.w3.org/2000/svg">
<path fill-rule="evenodd" clip-rule="evenodd" d="M14 21.5C17.866 21.5 21 18.366 21 14.5C21 10.634 17.866 7.5 14 7.5C10.134 7.5 7 10.634 7 14.5C7 18.366 10.134 21.5 14 21.5ZM14 19.1667C16.5773 19.1667 18.6667 17.0773 18.6667 14.5C18.6667 11.9227 16.5773 9.83333 14 9.83333C11.4227 9.83333 9.33333 11.9227 9.33333 14.5C9.33333 17.0773 11.4227 19.1667 14 19.1667Z" fill="#FAFAFA"/>
<path d="M21 6.33331C20.3557 6.33331 19.8334 6.85565 19.8334 7.49998C19.8334 8.14431 20.3557 8.66665 21 8.66665C21.6444 8.66665 22.1667 8.14431 22.1667 7.49998C22.1667 6.85565 21.6444 6.33331 21 6.33331Z" fill="#FAFAFA"/>
<path fill-rule="evenodd" clip-rule="evenodd" d="M1.92958 5.48876C1.16663 6.98614 1.16663 8.94632 1.16663 12.8667V16.1334C1.16663 20.0537 1.16663 22.0139 1.92958 23.5112C2.60069 24.8284 3.67155 25.8993 4.9887 26.5704C6.48608 27.3334 8.44626 27.3334 12.3666 27.3334H15.6333C19.5536 27.3334 21.5139 27.3334 23.0112 26.5704C24.3283 25.8993 25.3992 24.8284 26.0703 23.5112C26.8333 22.0139 26.8333 20.0537 26.8333 16.1334V12.8667C26.8333 8.94632 26.8333 6.98614 26.0703 5.48876C25.3992 4.17161 24.3283 3.10075 23.0112 2.42964C21.5139 1.66669 19.5536 1.66669 15.6333 1.66669H12.3666C8.44626 1.66669 6.48608 1.66669 4.9887 2.42964C3.67155 3.10075 2.60069 4.17161 1.92958 5.48876ZM15.6333 4.00002H12.3666C10.3679 4.00002 9.00925 4.00184 7.95905 4.08764C6.93607 4.17122 6.41294 4.32271 6.04801 4.50865C5.16991 4.95607 4.45601 5.66997 4.00859 6.54807C3.82265 6.913 3.67116 7.43613 3.58758 8.45911C3.50178 9.50931 3.49996 10.868 3.49996 12.8667V16.1334C3.49996 18.1321 3.50178 19.4907 3.58758 20.5409C3.67116 21.564 3.82265 22.0871 4.00859 22.452C4.45601 23.3301 5.16991 24.0439 6.04801 24.4914C6.41294 24.6773 6.93607 24.8289 7.95905 24.9124C9.00925 24.9981 10.3679 25 12.3666 25H15.6333C17.632 25 18.9906 24.9981 20.0408 24.9124C21.0639 24.8289 21.587 24.6773 21.952 24.4914C22.83 24.0439 23.5439 23.3301 23.9913 22.452C24.1773 22.0871 24.3288 21.564 24.4123 20.5409C24.4981 19.4907 24.5 18.1321 24.5 16.1334V12.8667C24.5 10.868 24.4981 9.50931 24.4123 8.45911C24.3288 7.43613 24.1773 6.913 23.9913 6.54807C23.5439 5.66997 22.83 4.95607 21.952 4.50865C21.587 4.32271 21.0639 4.17122 20.0408 4.08764C18.9906 4.00184 17.632 4.00002 15.6333 4.00002Z" fill="#FAFAFA"/>
</svg>
