<svg width="28" height="29" viewBox="0 0 28 29" fill="none" xmlns="http://www.w3.org/2000/svg">
<path d="M25.7594 0.502511H2.39744C2.09633 0.488407 1.79537 0.533816 1.51183 0.636164C1.22828 0.738512 0.967711 0.89577 0.745011 1.09893C0.522328 1.3021 0.34189 1.5472 0.214055 1.82018C0.0862208 2.09317 0.0134747 2.38868 0 2.68981V26.1027C0.0176396 26.7328 0.275898 27.3325 0.721736 27.7782C1.16757 28.224 1.76718 28.4823 2.39744 28.5H25.7594C26.3721 28.4727 26.9497 28.2064 27.3685 27.7582C27.7873 27.3101 28.0137 26.7159 27.9994 26.1027V2.68981C28.0044 2.39671 27.9495 2.1057 27.838 1.83458C27.7265 1.56347 27.5608 1.31799 27.351 1.11317C27.1413 0.908369 26.892 0.748574 26.6183 0.643566C26.3446 0.538558 26.0523 0.49056 25.7594 0.502511ZM8.7498 23.8454H4.67239V11.3691H8.7498V23.8454ZM6.80734 9.47919C6.52282 9.48911 6.23931 9.44008 5.97464 9.3352C5.70996 9.23031 5.46983 9.07183 5.26936 8.8697C5.06886 8.66758 4.91233 8.42619 4.80961 8.16068C4.70687 7.89518 4.66016 7.61131 4.67239 7.32689C4.65981 7.03939 4.70746 6.75245 4.8123 6.48446C4.91714 6.21646 5.07684 5.97333 5.28115 5.77068C5.48548 5.56802 5.72989 5.4103 5.99874 5.30766C6.2676 5.205 6.55495 5.15967 6.84234 5.17458C7.12687 5.16468 7.41038 5.21369 7.67504 5.31858C7.93973 5.42346 8.17985 5.58195 8.38033 5.78407C8.58082 5.98619 8.73736 6.22758 8.84008 6.49309C8.94282 6.75859 8.98953 7.04247 8.97729 7.32689C8.98988 7.61439 8.94222 7.90132 8.83738 8.16931C8.73254 8.43732 8.57284 8.68044 8.36854 8.88309C8.16421 9.08576 7.91979 9.24347 7.65095 9.34611C7.38208 9.44878 7.09474 9.4941 6.80734 9.47919ZM23.3445 23.8454H19.2496V17.021C19.2496 15.3937 18.6721 14.2738 17.2196 14.2738C16.7685 14.2777 16.3294 14.421 15.963 14.6841C15.5963 14.9473 15.3202 15.3174 15.1722 15.7437C15.0584 16.0632 15.0108 16.4025 15.0322 16.7411V23.8454H11.0072V11.3691H15.0322V13.1189C15.39 12.4615 15.9225 11.9159 16.5711 11.5421C17.2196 11.1685 17.9588 10.9814 18.7071 11.0016C21.3495 11.0016 23.3445 12.7514 23.3445 16.4786V23.8454Z" fill="#FAFAFA"/>
</svg>
