<svg width="30" height="31" viewBox="0 0 30 31" fill="none" xmlns="http://www.w3.org/2000/svg">
<g clip-path="url(#clip0_68_4)">
<path d="M14.75 14.125C11.9125 13.3875 11 12.625 11 11.4375C11 10.075 12.2625 9.125 14.375 9.125C16.6 9.125 17.425 10.1875 17.5 11.75H20.2625C20.175 9.6 18.8625 7.625 16.25 6.9875V4.25H12.5V6.95C10.075 7.475 8.12499 9.05 8.12499 11.4625C8.12499 14.35 10.5125 15.7875 14 16.625C17.125 17.375 17.75 18.475 17.75 19.6375C17.75 20.5 17.1375 21.875 14.375 21.875C11.8 21.875 10.7875 20.725 10.65 19.25H7.89999C8.04999 21.9875 10.1 23.525 12.5 24.0375V26.75H16.25V24.0625C18.6875 23.6 20.625 22.1875 20.625 19.625C20.625 16.075 17.5875 14.8625 14.75 14.125Z" fill="#74A5B5"/>
</g>
<defs>
<clipPath id="clip0_68_4">
<rect width="30" height="30" fill="white" transform="translate(0 0.5)"/>
</clipPath>
</defs>
</svg>
