<svg width="65" height="65" viewBox="0 0 65 65" fill="none" xmlns="http://www.w3.org/2000/svg">
<rect width="65" height="65" rx="32.5" fill="#2EC9B7"/>
<path d="M24.6417 49.5833L22.25 47.1917L34.0375 35.3615L40.0167 41.3406L48.8573 32.5L51.2917 34.9344L40.0167 46.1667L34.0375 40.1875L24.6417 49.5833ZM18.8334 47.875C17.8938 47.875 17.0894 47.5404 16.4203 46.8714C15.7512 46.2023 15.4167 45.3979 15.4167 44.4583V20.5417C15.4167 19.6021 15.7512 18.7977 16.4203 18.1286C17.0894 17.4595 17.8938 17.125 18.8334 17.125H42.75C43.6896 17.125 44.4939 17.4595 45.163 18.1286C45.8321 18.7977 46.1667 19.6021 46.1667 20.5417V27.7167H18.8334V47.875ZM18.8334 24.3H42.75V20.5417H18.8334V24.3Z" fill="#FAFAFA"/>
</svg>
