<svg width="65" height="65" viewBox="0 0 65 65" fill="none" xmlns="http://www.w3.org/2000/svg">
<rect width="65" height="65" rx="32.5" fill="#84BDE0"/>
<path d="M47.875 24.4367V20.5417C47.875 18.6625 46.3375 17.125 44.4583 17.125H20.5417C18.6454 17.125 17.125 18.6625 17.125 20.5417V44.4583C17.125 46.3375 18.6454 47.875 20.5417 47.875H44.4583C46.3375 47.875 47.875 46.3375 47.875 44.4583V40.5633C48.8829 39.9654 49.5833 38.8892 49.5833 37.625V27.375C49.5833 26.1108 48.8829 25.0346 47.875 24.4367ZM46.1667 27.375V37.625H34.2083V27.375H46.1667ZM20.5417 44.4583V20.5417H44.4583V23.9583H34.2083C32.3292 23.9583 30.7917 25.4958 30.7917 27.375V37.625C30.7917 39.5042 32.3292 41.0417 34.2083 41.0417H44.4583V44.4583H20.5417Z" fill="#FAFAFA"/>
<path d="M39.3333 35.0625C40.7486 35.0625 41.8958 33.9152 41.8958 32.5C41.8958 31.0848 40.7486 29.9375 39.3333 29.9375C37.9181 29.9375 36.7708 31.0848 36.7708 32.5C36.7708 33.9152 37.9181 35.0625 39.3333 35.0625Z" fill="#FAFAFA"/>
</svg>
